<?xml version="1.0" standalone="no"?>
<!DOCTYPE svg PUBLIC "-//W3C//DTD SVG 20010904//EN"
 "http://www.w3.org/TR/2001/REC-SVG-20010904/DTD/svg10.dtd">
<svg version="1.0" xmlns="http://www.w3.org/2000/svg"
 width="500.000000pt" height="500.000000pt" viewBox="0 0 500.000000 500.000000"
 preserveAspectRatio="xMidYMid meet">

<g transform="translate(0.000000,500.000000) scale(0.100000,-0.100000)"
fill="#000000" stroke="none">
<path d="M0 2500 l0 -2500 2500 0 2500 0 0 2500 0 2500 -2500 0 -2500 0 0
-2500z m2482 723 c24 -21 23 -35 -12 -279 -31 -219 -41 -257 -68 -271 -10 -4
-102 -10 -205 -13 l-188 -5 -19 -55 c-11 -30 -22 -74 -26 -98 -9 -58 -32 -72
-118 -72 -66 0 -68 1 -53 18 10 11 21 51 27 98 61 453 81 594 90 626 19 67 25
68 304 68 218 0 252 -2 268 -17z m686 -35 c-12 -64 -22 -84 -50 -99 -12 -7
-99 -14 -207 -18 l-186 -6 -15 -115 -15 -115 210 -5 210 -5 -3 -35 c-2 -19 -8
-50 -13 -67 -19 -61 -28 -63 -299 -63 -272 0 -290 4 -290 59 0 31 56 426 66
466 13 53 26 55 325 55 l276 0 -9 -52z m-2231 -312 c-4 -9 -13 -13 -22 -10
-18 7 -20 31 -2 37 17 6 31 -9 24 -27z m100 18 c8 -21 -13 -42 -28 -27 -13 13
-5 43 11 43 6 0 13 -7 17 -16z m100 0 c8 -21 -13 -42 -28 -27 -13 13 -5 43 11
43 6 0 13 -7 17 -16z m100 0 c8 -21 -13 -42 -28 -27 -13 13 -5 43 11 43 6 0
13 -7 17 -16z m103 -9 c0 -19 -20 -29 -32 -17 -15 15 -2 43 17 36 8 -3 15 -12
15 -19z m89 -11 c-9 -11 -15 -12 -25 -3 -11 9 -12 15 -3 25 9 11 15 12 25 3
11 -9 12 -15 3 -25z m101 11 c0 -8 -7 -15 -15 -15 -8 0 -15 7 -15 15 0 8 7 15
15 15 8 0 15 -7 15 -15z m92 0 c0 -5 -5 -11 -11 -13 -6 -2 -11 4 -11 13 0 9 5
15 11 13 6 -2 11 -8 11 -13z m-679 -89 c8 -19 -15 -37 -32 -26 -17 10 -7 40
13 40 7 0 16 -6 19 -14z m94 -2 c8 -20 -8 -36 -26 -25 -15 10 -8 41 9 41 6 0
13 -7 17 -16z m101 -7 c2 -12 -3 -17 -17 -17 -12 0 -21 6 -21 13 0 31 32 34
38 4z m99 7 c7 -18 -17 -38 -31 -24 -11 11 -1 40 14 40 6 0 13 -7 17 -16z
m100 0 c7 -18 -17 -38 -31 -24 -11 11 -1 40 14 40 6 0 13 -7 17 -16z m98 6 c4
-6 1 -17 -5 -26 -15 -18 -42 0 -33 22 6 16 29 19 38 4z m98 -4 c8 -19 -15 -37
-32 -26 -17 10 -7 40 13 40 7 0 16 -6 19 -14z m103 3 c10 -17 -23 -46 -37 -32
-7 7 -9 19 -6 27 7 18 33 21 43 5z m102 -12 c2 -9 -4 -20 -12 -23 -21 -8 -46
13 -39 32 8 20 47 13 51 -9z m62 1 c0 -16 -3 -19 -11 -11 -6 6 -8 16 -5 22 11
17 16 13 16 -11z m-960 -3 c0 -8 -7 -15 -15 -15 -8 0 -15 7 -15 15 0 8 7 15
15 15 8 0 15 -7 15 -15z m0 -101 c0 -8 -7 -14 -15 -14 -15 0 -21 21 -9 33 10
9 24 -2 24 -19z m103 12 c7 -18 -1 -26 -25 -26 -18 0 -25 20 -11 33 11 12 31
8 36 -7z m95 -9 c2 -12 -3 -17 -17 -17 -12 0 -21 6 -21 13 0 31 32 34 38 4z
m100 0 c2 -12 -3 -17 -17 -17 -12 0 -21 6 -21 13 0 31 32 34 38 4z m100 0 c2
-12 -3 -17 -17 -17 -12 0 -21 6 -21 13 0 31 32 34 38 4z m100 0 c2 -12 -3 -17
-17 -17 -12 0 -21 6 -21 13 0 31 32 34 38 4z m98 12 c9 -15 -11 -33 -30 -26
-9 4 -13 13 -10 22 7 17 30 20 40 4z m99 -9 c0 -8 -10 -16 -22 -18 -22 -3 -32
16 -16 32 12 11 38 2 38 -14z m101 9 c10 -17 -23 -46 -37 -32 -7 7 -9 19 -6
27 7 18 33 21 43 5z m102 -12 c2 -9 -4 -20 -12 -23 -21 -8 -46 13 -39 32 8 20
47 13 51 -9z m1852 3 c0 -5 -5 -10 -11 -10 -5 0 -7 5 -4 10 3 6 8 10 11 10 2
0 4 -4 4 -10z m100 0 c0 -5 -5 -10 -11 -10 -5 0 -7 5 -4 10 3 6 8 10 11 10 2
0 4 -4 4 -10z m100 0 c0 -5 -5 -10 -11 -10 -5 0 -7 5 -4 10 3 6 8 10 11 10 2
0 4 -4 4 -10z m-2060 -85 c16 -19 6 -45 -19 -45 -23 0 -35 28 -20 46 15 18 24
18 39 -1z m714 -1 c8 -22 -20 -64 -42 -64 -43 0 -60 65 -19 73 44 8 55 7 61
-9z m81 -14 c0 -18 -6 -26 -23 -28 -24 -4 -38 18 -28 44 3 9 15 14 28 12 17
-2 23 -10 23 -28z m590 0 c0 -18 -6 -26 -23 -28 -27 -4 -40 22 -22 44 19 22
45 13 45 -16z m95 15 c17 -20 5 -45 -20 -45 -11 0 -23 7 -26 15 -6 15 11 45
26 45 4 0 13 -7 20 -15z m100 -1 c11 -12 10 -18 -3 -31 -8 -9 -23 -13 -31 -10
-19 8 -21 43 -3 50 20 9 24 8 37 -9z m-2367 -8 c7 -18 -1 -26 -25 -26 -18 0
-25 20 -11 33 11 12 31 8 36 -7z m97 -6 c0 -13 -7 -20 -20 -20 -19 0 -27 20
-13 33 13 14 33 6 33 -13z m100 0 c0 -13 -7 -20 -20 -20 -19 0 -27 20 -13 33
13 14 33 6 33 -13z m98 -3 c2 -12 -3 -17 -17 -17 -15 0 -21 6 -21 21 0 25 33
22 38 -4z m100 0 c2 -12 -3 -17 -17 -17 -15 0 -21 6 -21 21 0 25 33 22 38 -4z
m100 6 c5 -17 -26 -29 -40 -15 -6 6 -7 15 -3 22 9 14 37 9 43 -7z m97 -3 c0
-8 -10 -16 -22 -18 -22 -3 -32 16 -16 32 12 11 38 2 38 -14z m99 11 c10 -16
-6 -42 -23 -39 -9 2 -17 13 -19 26 -3 16 2 22 17 22 11 0 22 -4 25 -9z m551
-18 c-3 -16 -25 -172 -50 -348 -24 -176 -49 -334 -55 -351 -15 -41 -46 -54
-132 -54 l-72 0 26 28 c25 25 29 46 72 355 26 180 52 338 58 352 13 29 47 43
110 44 46 1 47 0 43 -26z m162 11 c3 -9 -3 -24 -15 -37 -18 -18 -25 -19 -47
-9 -14 7 -25 20 -25 31 0 19 9 23 68 30 7 0 15 -6 19 -15z m668 -10 c0 -10 -8
-20 -18 -22 -22 -4 -35 27 -16 39 20 12 34 5 34 -17z m393 4 c-4 -27 -33 -36
-42 -13 -8 22 1 35 25 35 15 0 20 -6 17 -22z m82 15 c-1 -18 -18 -35 -24 -24
-4 6 -4 16 -1 21 7 12 25 13 25 3z m186 -58 c-4 -36 -9 -79 -13 -95 l-5 -30
-79 0 -79 0 6 43 c15 95 28 121 64 134 19 7 52 12 74 12 l39 1 -7 -65z m124
45 c0 -13 -7 -20 -20 -20 -19 0 -27 20 -13 33 13 14 33 6 33 -13z m98 -3 c2
-12 -3 -17 -17 -17 -15 0 -21 6 -21 21 0 25 33 22 38 -4z m100 0 c2 -12 -3
-17 -17 -17 -12 0 -21 6 -21 13 0 31 32 34 38 4z m92 -3 c0 -8 -7 -14 -15 -14
-15 0 -21 21 -9 33 10 9 24 -2 24 -19z m-3255 6 c3 -5 -1 -10 -10 -10 -9 0
-13 5 -10 10 3 6 8 10 10 10 2 0 7 -4 10 -10z m1775 0 c0 -5 -4 -10 -10 -10
-5 0 -10 5 -10 10 0 6 5 10 10 10 6 0 10 -4 10 -10z m100 0 c0 -5 -4 -10 -10
-10 -5 0 -10 5 -10 10 0 6 5 10 10 10 6 0 10 -4 10 -10z m100 -5 c0 -8 -7 -15
-15 -15 -8 0 -15 7 -15 15 0 8 7 15 15 15 8 0 15 -7 15 -15z m108 3 c-7 -20
-48 -23 -48 -4 0 11 9 16 26 16 16 0 24 -5 22 -12z m-1188 -84 c11 -12 10 -18
-3 -32 -16 -15 -18 -15 -34 0 -13 14 -14 20 -3 32 7 9 16 16 20 16 4 0 13 -7
20 -16z m1188 -12 c4 -28 -24 -40 -45 -19 -14 13 -14 19 -3 32 18 22 44 15 48
-13z m102 24 c0 -2 3 -11 6 -19 9 -23 -24 -49 -47 -37 -19 10 -26 40 -12 53 7
8 53 10 53 3z m95 -26 c0 -18 -6 -26 -23 -28 -13 -2 -25 3 -28 12 -10 26 4 48
28 44 17 -2 23 -10 23 -28z m95 15 c17 -20 5 -45 -20 -45 -23 0 -35 22 -26 45
7 19 30 19 46 0z m100 0 c10 -12 10 -18 0 -30 -7 -8 -18 -15 -26 -15 -19 0
-29 41 -13 51 19 12 25 11 39 -6z m-2272 -18 c2 -10 -3 -17 -12 -17 -18 0 -29
16 -21 31 9 14 29 6 33 -14z m102 3 c0 -13 -7 -20 -20 -20 -19 0 -27 20 -13
33 13 14 33 6 33 -13z m98 -3 c2 -12 -3 -17 -17 -17 -15 0 -21 6 -21 21 0 25
33 22 38 -4z m97 3 c0 -8 -8 -16 -17 -18 -13 -2 -18 3 -18 18 0 15 5 20 18 18
9 -2 17 -10 17 -18z m103 3 c5 -17 -26 -29 -40 -15 -6 6 -7 15 -3 22 9 14 37
9 43 -7z m100 0 c5 -17 -26 -29 -40 -15 -6 6 -7 15 -3 22 9 14 37 9 43 -7z
m97 7 c9 -15 -14 -40 -31 -33 -22 8 -18 43 5 43 11 0 23 -5 26 -10z m681 -1
c10 -17 -13 -36 -27 -22 -12 12 -4 33 11 33 5 0 12 -5 16 -11z m494 -9 c0 -11
-7 -20 -15 -20 -8 0 -15 9 -15 20 0 11 7 20 15 20 8 0 15 -9 15 -20z m600 1
c0 -24 -25 -34 -40 -16 -15 18 -5 35 21 35 12 0 19 -7 19 -19z m390 -1 c0 -13
-7 -20 -20 -20 -19 0 -27 20 -13 33 13 14 33 6 33 -13z m98 -3 c2 -12 -3 -17
-17 -17 -15 0 -21 6 -21 21 0 25 33 22 38 -4z m97 3 c0 -8 -8 -16 -17 -18 -13
-2 -18 3 -18 18 0 15 5 20 18 18 9 -2 17 -10 17 -18z m101 9 c9 -15 -11 -33
-30 -26 -9 4 -13 13 -10 22 7 17 30 20 40 4z m89 -19 c-5 -8 -11 -8 -17 -2 -6
6 -7 16 -3 22 5 8 11 8 17 2 6 -6 7 -16 3 -22z m-3255 10 c0 -5 -4 -10 -10
-10 -5 0 -10 5 -10 10 0 6 5 10 10 10 6 0 10 -4 10 -10z m1480 0 c0 -5 -4 -10
-10 -10 -5 0 -10 5 -10 10 0 6 5 10 10 10 6 0 10 -4 10 -10z m-1729 -131 c23
-23 22 -46 -6 -214 -20 -116 -18 -115 -229 -115 -166 0 -196 -5 -196 -32 0 -4
66 -8 148 -8 148 0 209 -9 224 -32 4 -7 8 -39 8 -70 l0 -58 -255 0 c-242 0
-256 1 -275 20 -11 11 -20 26 -20 33 0 33 61 429 70 451 5 15 20 31 32 36 13
5 125 9 251 9 218 1 228 0 248 -20z m193 -2 c18 -18 26 -43 36 -113 7 -49 18
-125 24 -169 l11 -80 66 -3 c78 -3 66 -30 100 221 l23 167 51 0 c68 0 95 -20
95 -68 0 -20 -14 -127 -30 -236 -24 -165 -32 -203 -50 -220 -19 -19 -34 -21
-171 -24 -164 -4 -199 3 -217 43 -6 14 -25 122 -42 242 -26 182 -34 221 -52
240 l-21 23 77 0 c67 0 80 -3 100 -23z m1014 7 c15 -10 22 -25 22 -47 -1 -58
-58 -424 -69 -446 -7 -12 -23 -26 -37 -31 -33 -13 -445 -13 -478 0 -23 8 -26
15 -26 58 0 57 46 384 61 428 5 17 20 36 32 42 13 7 109 11 247 11 189 1 229
-2 248 -15z m466 6 c33 -12 33 -43 6 -225 -11 -71 -20 -136 -20 -142 0 -10 31
-13 120 -13 66 0 120 1 121 3 0 1 12 88 27 192 l27 190 46 3 c25 2 57 -2 72
-7 24 -9 27 -16 27 -53 0 -55 -47 -393 -61 -434 -16 -50 -38 -54 -282 -54
-250 0 -267 4 -267 63 0 18 13 124 30 237 26 184 28 207 14 227 l-14 23 64 0
c36 0 76 -4 90 -10z m1062 -37 c-8 -56 -33 -95 -67 -104 -13 -4 -97 -7 -186
-8 -186 -1 -164 13 -183 -118 -18 -126 -39 -113 183 -113 107 0 196 -2 199 -5
11 -11 -14 -111 -33 -130 -18 -19 -35 -20 -247 -23 -270 -4 -282 -1 -282 60 0
58 49 406 62 440 5 15 22 31 37 37 14 5 138 10 275 10 l248 1 -6 -47z m234 25
c-1 -13 -16 -126 -34 -252 -32 -217 -35 -231 -60 -253 -23 -20 -38 -23 -102
-23 l-76 0 24 29 c21 25 28 56 57 262 18 129 34 240 36 247 3 8 28 12 80 12
71 0 75 -1 75 -22z m608 6 c15 -10 22 -25 22 -47 -1 -58 -58 -424 -69 -446 -7
-12 -23 -26 -37 -31 -33 -13 -445 -13 -478 0 -23 8 -26 15 -26 58 0 57 46 384
61 428 5 17 20 36 32 42 13 7 109 11 247 11 189 1 229 -2 248 -15z m643 -3
l23 -19 -28 -208 c-16 -115 -34 -225 -40 -244 -13 -42 -45 -60 -108 -60 -58 0
-56 -17 -23 210 14 95 25 174 25 176 0 3 -55 3 -122 2 l-123 -3 -22 -155 c-12
-86 -27 -168 -32 -183 -14 -35 -46 -47 -132 -47 l-70 0 26 23 c24 20 28 37 56
242 17 120 35 230 40 242 5 13 19 28 31 33 13 5 125 9 249 9 208 1 229 -1 250
-18z m-3177 -678 c11 -72 7 -133 -9 -133 -8 0 -15 7 -15 15 0 8 -4 15 -9 15
-5 0 -11 -7 -15 -15 -3 -8 -12 -15 -20 -15 -12 0 -11 12 6 68 34 112 51 130
62 65z m536 22 c0 -8 -7 -15 -15 -15 -8 0 -15 7 -15 15 0 8 7 15 15 15 8 0 15
-7 15 -15z m940 0 c0 -8 -7 -15 -15 -15 -8 0 -15 7 -15 15 0 8 7 15 15 15 8 0
15 -7 15 -15z m-1380 -40 c0 -8 -9 -15 -20 -15 -13 0 -22 -9 -26 -25 -8 -33 1
-56 21 -49 10 4 15 0 15 -10 0 -21 -43 -21 -60 -1 -14 17 -8 79 11 101 16 19
59 18 59 -1z m77 -2 c2 -6 -6 -13 -19 -15 -19 -2 -23 -9 -23 -38 0 -28 4 -34
18 -32 10 2 17 -3 17 -13 0 -21 -56 -20 -64 1 -19 50 9 118 47 112 11 -2 22
-8 24 -15z m81 -25 c3 -35 1 -38 -23 -38 -17 0 -25 -5 -22 -12 2 -7 11 -12 21
-10 9 2 16 -4 16 -13 0 -21 -56 -20 -64 1 -19 50 9 118 47 112 17 -2 23 -11
25 -40z m72 28 c0 -8 -5 -16 -11 -18 -6 -2 -8 -14 -4 -31 8 -31 25 -27 25 7 0
37 23 60 53 52 24 -6 27 -11 27 -47 0 -22 -5 -49 -10 -60 -13 -23 -55 -25 -68
-3 -8 14 -10 14 -21 0 -17 -20 -51 -21 -51 -1 0 8 7 15 15 15 12 0 12 4 0 32
-9 22 -10 39 -4 50 12 21 49 24 49 4z m170 -1 c0 -7 -9 -15 -19 -18 -15 -4
-20 -15 -23 -48 -2 -30 -8 -45 -19 -47 -16 -3 -16 9 -3 95 4 28 8 32 34 31 17
-1 30 -7 30 -13z m34 -37 c-7 -68 -11 -78 -27 -78 -9 0 -12 10 -10 33 9 78 15
97 28 97 11 0 13 -11 9 -52z m87 31 c12 -23 6 -74 -12 -96 -16 -18 -56 -16
-63 3 -27 71 41 155 75 93z m69 7 c0 -8 -5 -16 -12 -18 -9 -3 -9 -12 1 -36 7
-17 11 -38 7 -47 -7 -20 -56 -20 -56 0 0 8 7 15 16 15 11 0 14 5 9 18 -14 34
-17 52 -11 67 7 19 46 20 46 1z m71 -23 l1 -38 15 38 c9 20 22 37 30 37 8 0
12 -6 10 -12 -3 -7 -17 -48 -32 -90 -17 -50 -32 -78 -41 -78 -11 0 -13 6 -8
23 9 27 9 29 0 100 -6 48 -5 57 8 57 12 0 16 -10 17 -37z m159 26 c0 -5 8 -4
19 2 30 19 51 4 51 -36 0 -31 -3 -35 -26 -35 -16 0 -24 -5 -21 -12 2 -7 11
-12 21 -10 9 2 16 -4 16 -13 0 -10 -10 -15 -30 -15 -23 0 -31 5 -36 25 -3 14
-4 37 -2 50 4 19 1 25 -13 25 -14 0 -20 -11 -25 -50 -4 -34 -11 -50 -21 -50
-12 0 -13 11 -7 58 3 31 8 60 10 63 6 10 64 8 64 -2z m168 -36 c4 -50 -11 -83
-37 -83 -12 0 -21 -10 -25 -25 -4 -14 -12 -25 -19 -25 -11 0 -11 16 -5 78 11
101 11 101 50 99 31 -2 33 -4 36 -44z m98 0 c-3 -25 -6 -54 -6 -64 0 -15 -7
-18 -37 -16 -37 2 -38 3 -41 44 -4 60 10 81 54 81 l36 0 -6 -45z m84 35 c0 -7
4 -7 13 0 7 6 26 10 42 9 28 -2 30 -5 27 -37 -7 -82 -11 -90 -48 -90 -28 0
-35 4 -40 25 -3 14 -3 36 0 50 5 20 3 25 -14 25 -15 0 -20 -7 -20 -27 0 -43
-11 -73 -26 -73 -10 0 -12 13 -8 53 3 28 7 57 9 63 4 14 65 16 65 2z m167 -5
c2 -6 -6 -13 -19 -15 -19 -2 -23 -9 -23 -38 0 -25 4 -34 14 -32 8 2 18 -3 22
-10 6 -8 9 2 9 27 0 54 10 85 26 85 10 0 12 -13 8 -52 -3 -29 -7 -59 -10 -65
-5 -20 -90 -17 -98 3 -19 50 9 118 47 112 11 -2 22 -8 24 -15z m121 5 c15 -15
16 -57 2 -92 -11 -30 -50 -36 -70 -11 -13 16 -6 81 12 103 13 15 40 16 56 0z
m100 -1 c16 -19 2 -117 -16 -117 -12 0 -14 10 -10 50 4 38 2 50 -8 50 -9 0
-14 -11 -14 -27 0 -43 -11 -73 -26 -73 -10 0 -12 13 -8 53 3 28 7 57 9 63 4
15 61 16 73 1z m94 -11 c15 -34 4 -56 -28 -56 -16 0 -24 -5 -21 -12 2 -7 11
-12 21 -10 9 2 16 -4 16 -13 0 -20 -43 -20 -60 0 -14 17 -8 79 11 101 18 22
48 17 61 -10z m68 10 c0 -8 -5 -16 -12 -18 -9 -3 -9 -12 1 -36 7 -17 11 -38 7
-47 -7 -20 -56 -20 -56 0 0 8 7 15 16 15 11 0 14 5 9 18 -14 34 -17 52 -11 67
7 19 46 20 46 1z"/>
<path d="M2083 3070 c-13 -5 -23 -13 -23 -17 0 -4 -7 -53 -15 -108 -8 -55 -15
-103 -15 -107 0 -5 56 -8 125 -8 144 0 126 -17 149 140 8 52 12 98 9 103 -6
10 -203 8 -230 -3z"/>
<path d="M287 2213 c-4 -3 -7 -12 -7 -20 0 -10 26 -13 113 -13 107 0 137 7
137 32 0 10 -234 11 -243 1z"/>
<path d="M1495 2198 c-10 -44 -25 -153 -25 -180 l0 -28 120 0 c66 0 120 3 120
8 0 4 7 50 15 102 8 52 15 101 15 108 0 9 -31 12 -120 12 -116 0 -120 -1 -125
-22z"/>
<path d="M3865 2198 c-10 -44 -25 -153 -25 -180 l0 -28 120 0 c66 0 120 3 120
8 0 4 7 50 15 102 8 52 15 101 15 108 0 9 -31 12 -120 12 -116 0 -120 -1 -125
-22z"/>
<path d="M1691 1624 c0 -11 3 -14 6 -6 3 7 2 16 -1 19 -3 4 -6 -2 -5 -13z"/>
<path d="M1935 1639 c-4 -6 -5 -13 -2 -16 7 -7 27 6 27 18 0 12 -17 12 -25 -2z"/>
<path d="M2086 1619 c-6 -34 0 -53 15 -44 11 8 12 75 0 75 -5 0 -11 -14 -15
-31z"/>
<path d="M2297 1643 c-10 -10 -8 -73 2 -73 9 0 21 34 21 63 0 17 -11 22 -23
10z"/>
<path d="M2665 1639 c-4 -6 -5 -13 -2 -16 7 -7 27 6 27 18 0 12 -17 12 -25 -2z"/>
<path d="M2760 1615 c0 -19 5 -35 10 -35 6 0 10 16 10 35 0 19 -4 35 -10 35
-5 0 -10 -16 -10 -35z"/>
<path d="M2857 1644 c-10 -11 -9 -64 2 -64 11 0 22 53 12 63 -4 4 -10 4 -14 1z"/>
<path d="M3016 1634 c-10 -27 -7 -56 7 -52 14 5 23 68 9 68 -6 0 -13 -7 -16
-16z"/>
<path d="M3236 1634 c-9 -24 -7 -64 3 -64 11 0 21 25 21 56 0 27 -15 32 -24 8z"/>
<path d="M3427 1643 c-12 -11 -8 -23 8 -23 8 0 15 7 15 15 0 16 -12 20 -23 8z"/>
</g>
</svg>
